# xmcd
#
# Track frame offsets: 
#        150
#        25315
#        50446
#        62712
#        74899
#        87499
#        100610
#        113291
#        126109
#        138736
#        149892
#        162133
#        174256
#        186225
#        198359
#        215982
#        232882
#        249568
#        266204
#        282785
#        293325
#        304129
#        314849
#        325493
#
# Disc length: 4482 seconds
#
# Revision: 0
# Processed by: cddbd v1.5.2PL0 Copyright (c) Steve Scherf et al.
# Submitted via: ExactAudioCopy v0.95b3
#
DISCID=7a118018
DTITLE=Jimi Hendrix  - Axis - Bold As Love - The Sessions (ATM 159) - 
DTITLE=Disc 2
DYEAR=1900
DGENRE=
TTITLE0=If 6 Was 9
TTITLE1=If 6 Was 9
TTITLE2=You Got Me Floatin'
TTITLE3=You Got Me Floatin'
TTITLE4=You Got Me Floatin'
TTITLE5=Castles Made of Sand
TTITLE6=Castles Made of Sand
TTITLE7=Castles Made of Sand
TTITLE8=Castles Made of Sand
TTITLE9=Castles Made of Sand
TTITLE10=She's So Fine
TTITLE11=She's So Fine
TTITLE12=She's So Fine
TTITLE13=She's So Fine
TTITLE14=One Rainy Wish
TTITLE15=One Rainy Wish
TTITLE16=One Rainy Wish
TTITLE17=One Rainy Wish
TTITLE18=One Rainy Wish
TTITLE19=Little Miss Lover
TTITLE20=Little Miss Lover
TTITLE21=Little Miss Lover
TTITLE22=Little Miss Lover
TTITLE23=Little Miss Lover
EXTD=
EXTT0=
EXTT1=
EXTT2=
EXTT3=
EXTT4=
EXTT5=
EXTT6=
EXTT7=
EXTT8=
EXTT9=
EXTT10=
EXTT11=
EXTT12=
EXTT13=
EXTT14=
EXTT15=
EXTT16=
EXTT17=
EXTT18=
EXTT19=
EXTT20=
EXTT21=
EXTT22=
EXTT23=
PLAYORDER=
